<svg width="208" height="30" viewBox="0 0 208 30" fill="none" xmlns="http://www.w3.org/2000/svg">
<path d="M1.23446 21V4.66022H7.10376C9.20609 4.66022 10.8034 5.04552 11.8957 5.81613C12.9955 6.58673 13.5454 7.70523 13.5454 9.17162C13.5454 10.017 13.3509 10.739 12.9618 11.3375C12.5728 11.9361 12.0005 12.3775 11.2448 12.6618C12.0977 12.8862 12.7524 13.3052 13.2087 13.9187C13.6651 14.5322 13.8933 15.2803 13.8933 16.1632C13.8933 17.7642 13.3846 18.9688 12.3671 19.7768C11.357 20.5773 9.85699 20.985 7.86689 21H1.23446ZM5.17352 14.0533V17.97H7.75466C8.46541 17.97 9.01157 17.8091 9.39313 17.4874C9.77469 17.1582 9.96547 16.6981 9.96547 16.107C9.96547 14.7454 9.28839 14.0608 7.93422 14.0533H5.17352ZM5.17352 11.4722H7.22721C8.08759 11.4647 8.70108 11.3076 9.06768 11.0009C9.43428 10.6941 9.61758 10.2415 9.61758 9.64296C9.61758 8.95465 9.41931 8.46087 9.02279 8.1616C8.62627 7.85486 7.98659 7.70148 7.10376 7.70148H5.17352V11.4722ZM22.9206 21.2244C21.0577 21.2244 19.5501 20.6708 18.398 19.5635C17.2458 18.4488 16.6697 17.0011 16.6697 15.2205V14.9063C16.6697 13.6643 16.8979 12.5683 17.3543 11.6181C17.8181 10.6679 18.4915 9.93474 19.3743 9.41851C20.2571 8.8948 21.3046 8.63294 22.5166 8.63294C24.2224 8.63294 25.5691 9.16413 26.5566 10.2265C27.5442 11.2814 28.038 12.7553 28.038 14.6481V16.1183H20.519C20.6537 16.7991 20.9492 17.334 21.4056 17.7231C21.8619 18.1121 22.453 18.3066 23.1787 18.3066C24.3757 18.3066 25.3109 17.8877 25.9843 17.0497L27.7125 19.0922C27.2412 19.7431 26.5716 20.2631 25.7037 20.6521C24.8433 21.0337 23.9156 21.2244 22.9206 21.2244ZM22.4941 11.5508C21.3869 11.5508 20.7285 12.284 20.519 13.7503H24.3346V13.4586C24.3496 12.8526 24.1962 12.385 23.8745 12.0558C23.5528 11.7191 23.0927 11.5508 22.4941 11.5508ZM37.559 21C37.4244 20.7531 37.3047 20.3903 37.1999 19.9114C36.5041 20.7868 35.5315 21.2244 34.2821 21.2244C33.1374 21.2244 32.1648 20.8803 31.3643 20.192C30.5638 19.4962 30.1635 18.6246 30.1635 17.5772C30.1635 16.2604 30.6498 15.2654 31.6224 14.592C32.595 13.9187 34.009 13.582 35.8645 13.582H37.0316V12.9423C37.0316 11.8276 36.549 11.2702 35.5839 11.2702C34.6861 11.2702 34.2372 11.7116 34.2372 12.5944H30.4553C30.4553 11.4198 30.9528 10.4659 31.9479 9.73273C32.9504 8.99954 34.226 8.63294 35.7747 8.63294C37.3234 8.63294 38.5466 9.01076 39.4444 9.7664C40.3422 10.522 40.8023 11.5582 40.8248 12.875V18.2505C40.8397 19.3653 41.0118 20.2182 41.341 20.8092V21H37.559ZM35.1911 18.5311C35.6625 18.5311 36.0515 18.4301 36.3583 18.2281C36.6725 18.0261 36.8969 17.7979 37.0316 17.5435V15.602H35.9318C34.615 15.602 33.9567 16.1931 33.9567 17.3752C33.9567 17.7193 34.0726 17.9999 34.3046 18.2169C34.5365 18.4263 34.832 18.5311 35.1911 18.5311ZM51.3109 19.687C50.5104 20.712 49.4293 21.2244 48.0677 21.2244C46.736 21.2244 45.7259 20.8391 45.0376 20.0685C44.3568 19.2905 44.0164 18.1757 44.0164 16.7243V8.85739H47.7983V16.7467C47.7983 17.7867 48.3033 18.3066 49.3134 18.3066C50.1812 18.3066 50.7985 17.9961 51.1651 17.3752V8.85739H54.9694V21H51.4232L51.3109 19.687ZM62.6051 5.83857V8.85739H64.6027V11.4834H62.6051V17.0385C62.6051 17.4949 62.6874 17.8128 62.852 17.9924C63.0166 18.172 63.3421 18.2617 63.8284 18.2617C64.2025 18.2617 64.5167 18.2393 64.7711 18.1944V20.899C64.0902 21.116 63.3795 21.2244 62.6388 21.2244C61.337 21.2244 60.3756 20.9177 59.7547 20.3042C59.1337 19.6907 58.8232 18.7593 58.8232 17.5098V11.4834H57.2745V8.85739H58.8232V5.83857H62.6051ZM72.1038 15.703L74.1238 8.85739H78.1751L73.226 23.0312L73.0128 23.5475C72.3095 25.1186 71.0676 25.9042 69.2869 25.9042C68.7932 25.9042 68.2732 25.8294 67.727 25.6797V22.9751H68.2208C68.752 22.9751 69.156 22.8966 69.4328 22.7395C69.7171 22.5898 69.9266 22.3168 70.0613 21.9202L70.3643 21.1122L66.1447 8.85739H70.1847L72.1038 15.703ZM93.1502 14.9063L95.0243 4.66022H98.9297L95.462 21H91.3771L89.1887 11.6854L87.0452 21H82.9715L79.4926 4.66022H83.4092L85.2833 14.9063L87.5278 4.66022H90.8721L93.1502 14.9063ZM105.432 21H101.639V8.85739H105.432V21ZM101.414 5.72635C101.414 5.18767 101.609 4.74626 101.998 4.40211C102.387 4.05795 102.892 3.88588 103.513 3.88588C104.134 3.88588 104.639 4.05795 105.028 4.40211C105.417 4.74626 105.612 5.18767 105.612 5.72635C105.612 6.26502 105.417 6.70643 105.028 7.05059C104.639 7.39474 104.134 7.56682 103.513 7.56682C102.892 7.56682 102.387 7.39474 101.998 7.05059C101.609 6.70643 101.414 6.26502 101.414 5.72635ZM113.326 5.83857V8.85739H115.323V11.4834H113.326V17.0385C113.326 17.4949 113.408 17.8128 113.573 17.9924C113.737 18.172 114.063 18.2617 114.549 18.2617C114.923 18.2617 115.237 18.2393 115.492 18.1944V20.899C114.811 21.116 114.1 21.2244 113.359 21.2244C112.058 21.2244 111.096 20.9177 110.475 20.3042C109.854 19.6907 109.544 18.7593 109.544 17.5098V11.4834H107.995V8.85739H109.544V5.83857H113.326ZM121.669 10.1592C122.477 9.14169 123.509 8.63294 124.766 8.63294C126.105 8.63294 127.115 9.02947 127.796 9.82251C128.477 10.6156 128.825 11.7864 128.84 13.3351V21H125.046V13.4249C125.046 12.7815 124.916 12.3101 124.654 12.0109C124.392 11.7041 123.947 11.5508 123.318 11.5508C122.54 11.5508 121.99 11.7977 121.669 12.2914V21H117.887V3.76243H121.669V10.1592ZM137.822 14.9175L136.206 16.6906V21H132.267V4.66022H136.206V11.865L137.575 9.78885L141.099 4.66022H145.969L140.448 11.8874L145.969 21H141.301L137.822 14.9175ZM153.527 21.2244C151.664 21.2244 150.156 20.6708 149.004 19.5635C147.852 18.4488 147.276 17.0011 147.276 15.2205V14.9063C147.276 13.6643 147.504 12.5683 147.96 11.6181C148.424 10.6679 149.097 9.93474 149.98 9.41851C150.863 8.8948 151.911 8.63294 153.123 8.63294C154.828 8.63294 156.175 9.16413 157.163 10.2265C158.15 11.2814 158.644 12.7553 158.644 14.6481V16.1183H151.125C151.26 16.7991 151.555 17.334 152.012 17.7231C152.468 18.1121 153.059 18.3066 153.785 18.3066C154.982 18.3066 155.917 17.8877 156.59 17.0497L158.319 19.0922C157.847 19.7431 157.178 20.2631 156.31 20.6521C155.449 21.0337 154.522 21.2244 153.527 21.2244ZM153.1 11.5508C151.993 11.5508 151.334 12.284 151.125 13.7503H154.941V13.4586C154.956 12.8526 154.802 12.385 154.48 12.0558C154.159 11.7191 153.699 11.5508 153.1 11.5508ZM164.798 8.85739L164.922 10.2826C165.76 9.18284 166.916 8.63294 168.389 8.63294C169.654 8.63294 170.597 9.01076 171.218 9.7664C171.846 10.522 172.171 11.6592 172.194 13.178V21H168.401V13.3351C168.401 12.7216 168.277 12.2727 168.03 11.9884C167.783 11.6967 167.335 11.5508 166.684 11.5508C165.943 11.5508 165.393 11.8425 165.034 12.4261V21H161.252V8.85739H164.798ZM179.908 18.0822H185.441V21H175.127V18.8902L180.514 11.7752H175.363V8.85739H185.317V10.8999L179.908 18.0822ZM192.414 21H188.621V8.85739H192.414V21ZM188.397 5.72635C188.397 5.18767 188.591 4.74626 188.98 4.40211C189.369 4.05795 189.874 3.88588 190.495 3.88588C191.116 3.88588 191.621 4.05795 192.01 4.40211C192.399 4.74626 192.594 5.18767 192.594 5.72635C192.594 6.26502 192.399 6.70643 192.01 7.05059C191.621 7.39474 191.116 7.56682 190.495 7.56682C189.874 7.56682 189.369 7.39474 188.98 7.05059C188.591 6.70643 188.397 6.26502 188.397 5.72635ZM201.778 21.2244C199.915 21.2244 198.408 20.6708 197.256 19.5635C196.104 18.4488 195.527 17.0011 195.527 15.2205V14.9063C195.527 13.6643 195.756 12.5683 196.212 11.6181C196.676 10.6679 197.349 9.93474 198.232 9.41851C199.115 8.8948 200.162 8.63294 201.374 8.63294C203.08 8.63294 204.427 9.16413 205.414 10.2265C206.402 11.2814 206.896 12.7553 206.896 14.6481V16.1183H199.377C199.511 16.7991 199.807 17.334 200.263 17.7231C200.72 18.1121 201.311 18.3066 202.036 18.3066C203.233 18.3066 204.169 17.8877 204.842 17.0497L206.57 19.0922C206.099 19.7431 205.429 20.2631 204.561 20.6521C203.701 21.0337 202.773 21.2244 201.778 21.2244ZM201.352 11.5508C200.245 11.5508 199.586 12.284 199.377 13.7503H203.192V13.4586C203.207 12.8526 203.054 12.385 202.732 12.0558C202.411 11.7191 201.95 11.5508 201.352 11.5508Z" fill="#8264F8"/>
<rect x="206.851" y="25.5801" width="3.44752" height="74.6961" transform="rotate(90 206.851 25.5801)" fill="#FF99AC"/>
</svg>
